<mxfile host="app.diagrams.net" modified="2024-03-31T06:33:10.512Z" agent="Mozilla/5.0 (Windows NT 10.0; Win64; x64) AppleWebKit/537.36 (KHTML, like Gecko) Chrome/121.0.0.0 Safari/537.36 OPR/107.0.0.0 (Edition Yx GX)" etag="JWAqfZHrtBzMRD0WoVGn" version="24.2.1" type="device">
  <diagram id="C5RBs43oDa-KdzZeNtuy" name="Page-1">
    <mxGraphModel dx="865" dy="503" grid="1" gridSize="10" guides="1" tooltips="1" connect="1" arrows="1" fold="1" page="1" pageScale="1" pageWidth="827" pageHeight="1169" math="0" shadow="0">
      <root>
        <mxCell id="WIyWlLk6GJQsqaUBKTNV-0" />
        <mxCell id="WIyWlLk6GJQsqaUBKTNV-1" parent="WIyWlLk6GJQsqaUBKTNV-0" />
        <mxCell id="DEPMY-a5Qj2K-8k7DP_i-851" value="Control" style="swimlane;fontStyle=1;align=center;verticalAlign=top;childLayout=stackLayout;horizontal=1;startSize=26;horizontalStack=0;resizeParent=1;resizeParentMax=0;resizeLast=0;collapsible=1;marginBottom=0;whiteSpace=wrap;html=1;rounded=1;glass=0;swimlaneLine=1;shadow=0;" vertex="1" parent="WIyWlLk6GJQsqaUBKTNV-1">
          <mxGeometry x="240" y="330" width="230" height="220" as="geometry" />
        </mxCell>
        <mxCell id="DEPMY-a5Qj2K-8k7DP_i-852" value="- user&lt;div&gt;- user_analyzer&lt;/div&gt;&lt;div&gt;- control_analyzer&lt;/div&gt;" style="text;strokeColor=none;fillColor=none;align=left;verticalAlign=top;spacingLeft=4;spacingRight=4;overflow=hidden;rotatable=0;points=[[0,0.5],[1,0.5]];portConstraint=eastwest;whiteSpace=wrap;html=1;rounded=0;" vertex="1" parent="DEPMY-a5Qj2K-8k7DP_i-851">
          <mxGeometry y="26" width="230" height="54" as="geometry" />
        </mxCell>
        <mxCell id="DEPMY-a5Qj2K-8k7DP_i-853" value="" style="line;strokeWidth=1;fillColor=none;align=left;verticalAlign=middle;spacingTop=-1;spacingLeft=3;spacingRight=3;rotatable=0;labelPosition=right;points=[];portConstraint=eastwest;strokeColor=inherit;" vertex="1" parent="DEPMY-a5Qj2K-8k7DP_i-851">
          <mxGeometry y="80" width="230" height="8" as="geometry" />
        </mxCell>
        <mxCell id="DEPMY-a5Qj2K-8k7DP_i-854" value="&lt;div&gt;+ treatment_request&lt;br&gt;+ AnalyzeRequest&lt;br&gt;+ Registration&lt;/div&gt;&lt;div&gt;+ Login&lt;/div&gt;&lt;div&gt;+ Openaccount&lt;br&gt;+ Closeaccount&lt;/div&gt;&lt;div&gt;+ Getbalance&lt;/div&gt;&lt;div&gt;+ Sendmoney&lt;/div&gt;" style="text;strokeColor=none;fillColor=none;align=left;verticalAlign=top;spacingLeft=4;spacingRight=4;overflow=hidden;rotatable=0;points=[[0,0.5],[1,0.5]];portConstraint=eastwest;whiteSpace=wrap;html=1;" vertex="1" parent="DEPMY-a5Qj2K-8k7DP_i-851">
          <mxGeometry y="88" width="230" height="132" as="geometry" />
        </mxCell>
        <mxCell id="DEPMY-a5Qj2K-8k7DP_i-856" value="User" style="swimlane;fontStyle=1;align=center;verticalAlign=top;childLayout=stackLayout;horizontal=1;startSize=26;horizontalStack=0;resizeParent=1;resizeParentMax=0;resizeLast=0;collapsible=1;marginBottom=0;whiteSpace=wrap;html=1;rounded=1;" vertex="1" parent="WIyWlLk6GJQsqaUBKTNV-1">
          <mxGeometry x="60" y="460" width="160" height="260" as="geometry" />
        </mxCell>
        <mxCell id="DEPMY-a5Qj2K-8k7DP_i-857" value="- conn&lt;div&gt;- cursor&lt;/div&gt;&lt;div&gt;- analyzer&lt;/div&gt;" style="text;strokeColor=none;fillColor=none;align=left;verticalAlign=top;spacingLeft=4;spacingRight=4;overflow=hidden;rotatable=0;points=[[0,0.5],[1,0.5]];portConstraint=eastwest;whiteSpace=wrap;html=1;" vertex="1" parent="DEPMY-a5Qj2K-8k7DP_i-856">
          <mxGeometry y="26" width="160" height="54" as="geometry" />
        </mxCell>
        <mxCell id="DEPMY-a5Qj2K-8k7DP_i-858" value="" style="line;strokeWidth=1;fillColor=none;align=left;verticalAlign=middle;spacingTop=-1;spacingLeft=3;spacingRight=3;rotatable=0;labelPosition=right;points=[];portConstraint=eastwest;strokeColor=inherit;" vertex="1" parent="DEPMY-a5Qj2K-8k7DP_i-856">
          <mxGeometry y="80" width="160" height="8" as="geometry" />
        </mxCell>
        <mxCell id="DEPMY-a5Qj2K-8k7DP_i-859" value="&lt;div&gt;+ create_table&lt;/div&gt;&lt;div&gt;+ treatment_request&lt;br&gt;+ AnalyzeRequest&lt;br&gt;+ AddUser&lt;/div&gt;&lt;div&gt;+ DelUser&lt;/div&gt;&lt;div&gt;+ VerifyUser&lt;/div&gt;&lt;div&gt;+ IsVerified&lt;/div&gt;&lt;div&gt;+ GetID&lt;/div&gt;&lt;div&gt;+ NumberGetID&lt;/div&gt;&lt;div&gt;+ GetFSP&lt;/div&gt;&lt;div&gt;+ GetPassword&lt;/div&gt;&lt;div&gt;&lt;br&gt;&lt;/div&gt;" style="text;strokeColor=none;fillColor=none;align=left;verticalAlign=top;spacingLeft=4;spacingRight=4;overflow=hidden;rotatable=0;points=[[0,0.5],[1,0.5]];portConstraint=eastwest;whiteSpace=wrap;html=1;" vertex="1" parent="DEPMY-a5Qj2K-8k7DP_i-856">
          <mxGeometry y="88" width="160" height="172" as="geometry" />
        </mxCell>
        <mxCell id="DEPMY-a5Qj2K-8k7DP_i-860" value="Requests" style="swimlane;fontStyle=0;childLayout=stackLayout;horizontal=1;startSize=26;fillColor=none;horizontalStack=0;resizeParent=1;resizeParentMax=0;resizeLast=0;collapsible=1;marginBottom=0;whiteSpace=wrap;html=1;rounded=1;" vertex="1" parent="WIyWlLk6GJQsqaUBKTNV-1">
          <mxGeometry x="140" y="820" width="180" height="160" as="geometry" />
        </mxCell>
        <mxCell id="DEPMY-a5Qj2K-8k7DP_i-861" value="+ id_user_request&lt;div&gt;+ id_number_user_request&lt;/div&gt;&lt;div&gt;+ open_request&lt;/div&gt;&lt;div&gt;+ close_request&lt;br&gt;+ balance_request&lt;br&gt;+ id_balance_request&lt;/div&gt;&lt;div&gt;+ giver_request&lt;br&gt;+ receiver_request&lt;/div&gt;" style="text;strokeColor=none;fillColor=none;align=left;verticalAlign=top;spacingLeft=4;spacingRight=4;overflow=hidden;rotatable=0;points=[[0,0.5],[1,0.5]];portConstraint=eastwest;whiteSpace=wrap;html=1;" vertex="1" parent="DEPMY-a5Qj2K-8k7DP_i-860">
          <mxGeometry y="26" width="180" height="134" as="geometry" />
        </mxCell>
        <mxCell id="DEPMY-a5Qj2K-8k7DP_i-864" value="BankAccount" style="swimlane;fontStyle=1;align=center;verticalAlign=top;childLayout=stackLayout;horizontal=1;startSize=26;horizontalStack=0;resizeParent=1;resizeParentMax=0;resizeLast=0;collapsible=1;marginBottom=0;whiteSpace=wrap;html=1;rounded=1;" vertex="1" parent="WIyWlLk6GJQsqaUBKTNV-1">
          <mxGeometry x="600" y="380" width="500" height="100" as="geometry" />
        </mxCell>
        <mxCell id="DEPMY-a5Qj2K-8k7DP_i-865" value="- accounts" style="text;strokeColor=none;fillColor=none;align=left;verticalAlign=top;spacingLeft=4;spacingRight=4;overflow=hidden;rotatable=0;points=[[0,0.5],[1,0.5]];portConstraint=eastwest;whiteSpace=wrap;html=1;" vertex="1" parent="DEPMY-a5Qj2K-8k7DP_i-864">
          <mxGeometry y="26" width="500" height="34" as="geometry" />
        </mxCell>
        <mxCell id="DEPMY-a5Qj2K-8k7DP_i-866" value="" style="line;strokeWidth=1;fillColor=none;align=left;verticalAlign=middle;spacingTop=-1;spacingLeft=3;spacingRight=3;rotatable=0;labelPosition=right;points=[];portConstraint=eastwest;strokeColor=inherit;" vertex="1" parent="DEPMY-a5Qj2K-8k7DP_i-864">
          <mxGeometry y="60" width="500" height="8" as="geometry" />
        </mxCell>
        <mxCell id="DEPMY-a5Qj2K-8k7DP_i-867" value="+ process_request" style="text;strokeColor=none;fillColor=none;align=left;verticalAlign=top;spacingLeft=4;spacingRight=4;overflow=hidden;rotatable=0;points=[[0,0.5],[1,0.5]];portConstraint=eastwest;whiteSpace=wrap;html=1;" vertex="1" parent="DEPMY-a5Qj2K-8k7DP_i-864">
          <mxGeometry y="68" width="500" height="32" as="geometry" />
        </mxCell>
        <mxCell id="DEPMY-a5Qj2K-8k7DP_i-868" value="Debit" style="swimlane;fontStyle=1;align=center;verticalAlign=top;childLayout=stackLayout;horizontal=1;startSize=26;horizontalStack=0;resizeParent=1;resizeParentMax=0;resizeLast=0;collapsible=1;marginBottom=0;whiteSpace=wrap;html=1;rounded=1;" vertex="1" parent="WIyWlLk6GJQsqaUBKTNV-1">
          <mxGeometry x="600" y="510" width="160" height="130" as="geometry" />
        </mxCell>
        <mxCell id="DEPMY-a5Qj2K-8k7DP_i-869" value="- conn&lt;div&gt;- cursor&lt;/div&gt;&lt;div&gt;- anayzer&lt;/div&gt;" style="text;strokeColor=none;fillColor=none;align=left;verticalAlign=top;spacingLeft=4;spacingRight=4;overflow=hidden;rotatable=0;points=[[0,0.5],[1,0.5]];portConstraint=eastwest;whiteSpace=wrap;html=1;" vertex="1" parent="DEPMY-a5Qj2K-8k7DP_i-868">
          <mxGeometry y="26" width="160" height="54" as="geometry" />
        </mxCell>
        <mxCell id="DEPMY-a5Qj2K-8k7DP_i-870" value="" style="line;strokeWidth=1;fillColor=none;align=left;verticalAlign=middle;spacingTop=-1;spacingLeft=3;spacingRight=3;rotatable=0;labelPosition=right;points=[];portConstraint=eastwest;strokeColor=inherit;" vertex="1" parent="DEPMY-a5Qj2K-8k7DP_i-868">
          <mxGeometry y="80" width="160" height="8" as="geometry" />
        </mxCell>
        <mxCell id="DEPMY-a5Qj2K-8k7DP_i-871" value="+ create_table&lt;div&gt;+ treatment_request&lt;/div&gt;" style="text;strokeColor=none;fillColor=none;align=left;verticalAlign=top;spacingLeft=4;spacingRight=4;overflow=hidden;rotatable=0;points=[[0,0.5],[1,0.5]];portConstraint=eastwest;whiteSpace=wrap;html=1;" vertex="1" parent="DEPMY-a5Qj2K-8k7DP_i-868">
          <mxGeometry y="88" width="160" height="42" as="geometry" />
        </mxCell>
        <mxCell id="DEPMY-a5Qj2K-8k7DP_i-876" value="Credit" style="swimlane;fontStyle=1;align=center;verticalAlign=top;childLayout=stackLayout;horizontal=1;startSize=26;horizontalStack=0;resizeParent=1;resizeParentMax=0;resizeLast=0;collapsible=1;marginBottom=0;whiteSpace=wrap;html=1;rounded=1;" vertex="1" parent="WIyWlLk6GJQsqaUBKTNV-1">
          <mxGeometry x="770" y="510" width="160" height="130" as="geometry" />
        </mxCell>
        <mxCell id="DEPMY-a5Qj2K-8k7DP_i-877" value="- conn&lt;div&gt;- cursor&lt;/div&gt;&lt;div&gt;- anayzer&lt;/div&gt;" style="text;strokeColor=none;fillColor=none;align=left;verticalAlign=top;spacingLeft=4;spacingRight=4;overflow=hidden;rotatable=0;points=[[0,0.5],[1,0.5]];portConstraint=eastwest;whiteSpace=wrap;html=1;" vertex="1" parent="DEPMY-a5Qj2K-8k7DP_i-876">
          <mxGeometry y="26" width="160" height="54" as="geometry" />
        </mxCell>
        <mxCell id="DEPMY-a5Qj2K-8k7DP_i-878" value="" style="line;strokeWidth=1;fillColor=none;align=left;verticalAlign=middle;spacingTop=-1;spacingLeft=3;spacingRight=3;rotatable=0;labelPosition=right;points=[];portConstraint=eastwest;strokeColor=inherit;" vertex="1" parent="DEPMY-a5Qj2K-8k7DP_i-876">
          <mxGeometry y="80" width="160" height="8" as="geometry" />
        </mxCell>
        <mxCell id="DEPMY-a5Qj2K-8k7DP_i-879" value="+ create_table&lt;div&gt;+ treatment_request&lt;/div&gt;" style="text;strokeColor=none;fillColor=none;align=left;verticalAlign=top;spacingLeft=4;spacingRight=4;overflow=hidden;rotatable=0;points=[[0,0.5],[1,0.5]];portConstraint=eastwest;whiteSpace=wrap;html=1;" vertex="1" parent="DEPMY-a5Qj2K-8k7DP_i-876">
          <mxGeometry y="88" width="160" height="42" as="geometry" />
        </mxCell>
        <mxCell id="DEPMY-a5Qj2K-8k7DP_i-880" value="Deposit" style="swimlane;fontStyle=1;align=center;verticalAlign=top;childLayout=stackLayout;horizontal=1;startSize=26;horizontalStack=0;resizeParent=1;resizeParentMax=0;resizeLast=0;collapsible=1;marginBottom=0;whiteSpace=wrap;html=1;rounded=1;" vertex="1" parent="WIyWlLk6GJQsqaUBKTNV-1">
          <mxGeometry x="940" y="510" width="160" height="130" as="geometry" />
        </mxCell>
        <mxCell id="DEPMY-a5Qj2K-8k7DP_i-881" value="- conn&lt;div&gt;- cursor&lt;/div&gt;&lt;div&gt;- anayzer&lt;/div&gt;" style="text;strokeColor=none;fillColor=none;align=left;verticalAlign=top;spacingLeft=4;spacingRight=4;overflow=hidden;rotatable=0;points=[[0,0.5],[1,0.5]];portConstraint=eastwest;whiteSpace=wrap;html=1;" vertex="1" parent="DEPMY-a5Qj2K-8k7DP_i-880">
          <mxGeometry y="26" width="160" height="54" as="geometry" />
        </mxCell>
        <mxCell id="DEPMY-a5Qj2K-8k7DP_i-882" value="" style="line;strokeWidth=1;fillColor=none;align=left;verticalAlign=middle;spacingTop=-1;spacingLeft=3;spacingRight=3;rotatable=0;labelPosition=right;points=[];portConstraint=eastwest;strokeColor=inherit;" vertex="1" parent="DEPMY-a5Qj2K-8k7DP_i-880">
          <mxGeometry y="80" width="160" height="8" as="geometry" />
        </mxCell>
        <mxCell id="DEPMY-a5Qj2K-8k7DP_i-883" value="+ create_table&lt;div&gt;+ treatment_request&lt;/div&gt;" style="text;strokeColor=none;fillColor=none;align=left;verticalAlign=top;spacingLeft=4;spacingRight=4;overflow=hidden;rotatable=0;points=[[0,0.5],[1,0.5]];portConstraint=eastwest;whiteSpace=wrap;html=1;" vertex="1" parent="DEPMY-a5Qj2K-8k7DP_i-880">
          <mxGeometry y="88" width="160" height="42" as="geometry" />
        </mxCell>
        <mxCell id="DEPMY-a5Qj2K-8k7DP_i-893" style="edgeStyle=orthogonalEdgeStyle;rounded=0;orthogonalLoop=1;jettySize=auto;html=1;exitX=0.5;exitY=0;exitDx=0;exitDy=0;entryX=0.5;entryY=1;entryDx=0;entryDy=0;" edge="1" parent="WIyWlLk6GJQsqaUBKTNV-1" source="DEPMY-a5Qj2K-8k7DP_i-888" target="DEPMY-a5Qj2K-8k7DP_i-868">
          <mxGeometry relative="1" as="geometry" />
        </mxCell>
        <mxCell id="DEPMY-a5Qj2K-8k7DP_i-888" value="MethodDebit" style="swimlane;fontStyle=1;align=center;verticalAlign=top;childLayout=stackLayout;horizontal=1;startSize=26;horizontalStack=0;resizeParent=1;resizeParentMax=0;resizeLast=0;collapsible=1;marginBottom=0;whiteSpace=wrap;html=1;rounded=1;" vertex="1" parent="WIyWlLk6GJQsqaUBKTNV-1">
          <mxGeometry x="600" y="660" width="160" height="130" as="geometry" />
        </mxCell>
        <mxCell id="DEPMY-a5Qj2K-8k7DP_i-891" value="+ AnalyzeRequest&lt;div&gt;+ Openaccount&lt;/div&gt;&lt;div&gt;+ Closeaccount&lt;/div&gt;&lt;div&gt;+ GetMoney&lt;/div&gt;&lt;div&gt;+ GiveMoney&lt;/div&gt;&lt;div&gt;+ GetBalance&lt;/div&gt;" style="text;strokeColor=none;fillColor=none;align=left;verticalAlign=top;spacingLeft=4;spacingRight=4;overflow=hidden;rotatable=0;points=[[0,0.5],[1,0.5]];portConstraint=eastwest;whiteSpace=wrap;html=1;" vertex="1" parent="DEPMY-a5Qj2K-8k7DP_i-888">
          <mxGeometry y="26" width="160" height="104" as="geometry" />
        </mxCell>
        <mxCell id="DEPMY-a5Qj2K-8k7DP_i-894" value="MethodCredit" style="swimlane;fontStyle=1;align=center;verticalAlign=top;childLayout=stackLayout;horizontal=1;startSize=26;horizontalStack=0;resizeParent=1;resizeParentMax=0;resizeLast=0;collapsible=1;marginBottom=0;whiteSpace=wrap;html=1;rounded=1;" vertex="1" parent="WIyWlLk6GJQsqaUBKTNV-1">
          <mxGeometry x="770" y="660" width="160" height="140" as="geometry" />
        </mxCell>
        <mxCell id="DEPMY-a5Qj2K-8k7DP_i-895" value="+ AnalyzeRequest&lt;div&gt;+ Openaccount&lt;/div&gt;&lt;div&gt;+ Closeaccount&lt;/div&gt;&lt;div&gt;+ GetMoney&lt;/div&gt;&lt;div&gt;+ GiveMoney&lt;/div&gt;&lt;div&gt;+ PayCredit&lt;/div&gt;&lt;div&gt;+ GetBalance&lt;/div&gt;" style="text;strokeColor=none;fillColor=none;align=left;verticalAlign=top;spacingLeft=4;spacingRight=4;overflow=hidden;rotatable=0;points=[[0,0.5],[1,0.5]];portConstraint=eastwest;whiteSpace=wrap;html=1;" vertex="1" parent="DEPMY-a5Qj2K-8k7DP_i-894">
          <mxGeometry y="26" width="160" height="114" as="geometry" />
        </mxCell>
        <mxCell id="DEPMY-a5Qj2K-8k7DP_i-900" style="edgeStyle=orthogonalEdgeStyle;rounded=0;orthogonalLoop=1;jettySize=auto;html=1;exitX=0.5;exitY=0;exitDx=0;exitDy=0;entryX=0.5;entryY=1;entryDx=0;entryDy=0;" edge="1" parent="WIyWlLk6GJQsqaUBKTNV-1" source="DEPMY-a5Qj2K-8k7DP_i-896" target="DEPMY-a5Qj2K-8k7DP_i-880">
          <mxGeometry relative="1" as="geometry" />
        </mxCell>
        <mxCell id="DEPMY-a5Qj2K-8k7DP_i-896" value="MethodDeposit" style="swimlane;fontStyle=1;align=center;verticalAlign=top;childLayout=stackLayout;horizontal=1;startSize=26;horizontalStack=0;resizeParent=1;resizeParentMax=0;resizeLast=0;collapsible=1;marginBottom=0;whiteSpace=wrap;html=1;rounded=1;" vertex="1" parent="WIyWlLk6GJQsqaUBKTNV-1">
          <mxGeometry x="940" y="660" width="160" height="170" as="geometry" />
        </mxCell>
        <mxCell id="DEPMY-a5Qj2K-8k7DP_i-897" value="+ AnalyzeRequest&lt;div&gt;+ Openaccount&lt;/div&gt;&lt;div&gt;+ Closeaccount&lt;/div&gt;&lt;div&gt;+ GetMoney&lt;/div&gt;&lt;div&gt;+ GiveMoney&lt;/div&gt;&lt;div&gt;+ SetOn&lt;/div&gt;&lt;div&gt;+ SetOff&lt;/div&gt;&lt;div&gt;+ PayDeposit&lt;/div&gt;&lt;div&gt;+ GetBalance&lt;/div&gt;" style="text;strokeColor=none;fillColor=none;align=left;verticalAlign=top;spacingLeft=4;spacingRight=4;overflow=hidden;rotatable=0;points=[[0,0.5],[1,0.5]];portConstraint=eastwest;whiteSpace=wrap;html=1;" vertex="1" parent="DEPMY-a5Qj2K-8k7DP_i-896">
          <mxGeometry y="26" width="160" height="144" as="geometry" />
        </mxCell>
        <mxCell id="DEPMY-a5Qj2K-8k7DP_i-899" style="edgeStyle=orthogonalEdgeStyle;rounded=0;orthogonalLoop=1;jettySize=auto;html=1;exitX=0.5;exitY=0;exitDx=0;exitDy=0;entryX=0.499;entryY=0.99;entryDx=0;entryDy=0;entryPerimeter=0;" edge="1" parent="WIyWlLk6GJQsqaUBKTNV-1" source="DEPMY-a5Qj2K-8k7DP_i-894" target="DEPMY-a5Qj2K-8k7DP_i-879">
          <mxGeometry relative="1" as="geometry" />
        </mxCell>
        <mxCell id="DEPMY-a5Qj2K-8k7DP_i-906" style="edgeStyle=orthogonalEdgeStyle;rounded=0;orthogonalLoop=1;jettySize=auto;html=1;exitX=0.5;exitY=0;exitDx=0;exitDy=0;entryX=0.501;entryY=0.998;entryDx=0;entryDy=0;entryPerimeter=0;" edge="1" parent="WIyWlLk6GJQsqaUBKTNV-1" source="DEPMY-a5Qj2K-8k7DP_i-876" target="DEPMY-a5Qj2K-8k7DP_i-867">
          <mxGeometry relative="1" as="geometry" />
        </mxCell>
        <mxCell id="DEPMY-a5Qj2K-8k7DP_i-909" style="edgeStyle=orthogonalEdgeStyle;rounded=0;orthogonalLoop=1;jettySize=auto;html=1;exitX=0.5;exitY=0;exitDx=0;exitDy=0;entryX=0.84;entryY=1.037;entryDx=0;entryDy=0;entryPerimeter=0;" edge="1" parent="WIyWlLk6GJQsqaUBKTNV-1" source="DEPMY-a5Qj2K-8k7DP_i-880" target="DEPMY-a5Qj2K-8k7DP_i-867">
          <mxGeometry relative="1" as="geometry" />
        </mxCell>
        <mxCell id="DEPMY-a5Qj2K-8k7DP_i-910" style="edgeStyle=orthogonalEdgeStyle;rounded=0;orthogonalLoop=1;jettySize=auto;html=1;exitX=0.5;exitY=0;exitDx=0;exitDy=0;entryX=0.16;entryY=1.108;entryDx=0;entryDy=0;entryPerimeter=0;" edge="1" parent="WIyWlLk6GJQsqaUBKTNV-1" source="DEPMY-a5Qj2K-8k7DP_i-868" target="DEPMY-a5Qj2K-8k7DP_i-867">
          <mxGeometry relative="1" as="geometry">
            <Array as="points">
              <mxPoint x="680" y="483" />
              <mxPoint x="680" y="483" />
            </Array>
          </mxGeometry>
        </mxCell>
      </root>
    </mxGraphModel>
  </diagram>
</mxfile>
